<svg width="880" height="330" xmlns="http://www.w3.org/2000/svg"><text class="tag" x="44" y="14" fill="#b5462f" font-size="10.5" font-weight="600" letter-spacing="0.04em" font-family="ui-monospace, monospace">event probe — is a relocation coming?</text><g class="axis" transform="translate(0,266)" fill="none" font-size="10" font-family="sans-serif" text-anchor="middle"><path class="domain" stroke="#e3e7ea" d="M44,6V0H424V6" fill="none"></path><g class="tick" opacity="1" transform="translate(44,0)"><line stroke="#e3e7ea" y2="6" fill="none"></line><text fill="#5b6570" y="9" dy="0.71em" font-size="11" font-family="Source Sans 3, Segoe UI, sans-serif">0</text></g><g class="tick" opacity="1" transform="translate(91.5,0)"><line stroke="#e3e7ea" y2="6" fill="none"></line><text fill="#5b6570" y="9" dy="0.71em" font-size="11" font-family="Source Sans 3, Segoe UI, sans-serif">5</text></g><g class="tick" opacity="1" transform="translate(139,0)"><line stroke="#e3e7ea" y2="6" fill="none"></line><text fill="#5b6570" y="9" dy="0.71em" font-size="11" font-family="Source Sans 3, Segoe UI, sans-serif">10</text></g><g class="tick" opacity="1" transform="translate(186.5,0)"><line stroke="#e3e7ea" y2="6" fill="none"></line><text fill="#5b6570" y="9" dy="0.71em" font-size="11" font-family="Source Sans 3, Segoe UI, sans-serif">15</text></g><g class="tick" opacity="1" transform="translate(234,0)"><line stroke="#e3e7ea" y2="6" fill="none"></line><text fill="#5b6570" y="9" dy="0.71em" font-size="11" font-family="Source Sans 3, Segoe UI, sans-serif">20</text></g><g class="tick" opacity="1" transform="translate(281.5,0)"><line stroke="#e3e7ea" y2="6" fill="none"></line><text fill="#5b6570" y="9" dy="0.71em" font-size="11" font-family="Source Sans 3, Segoe UI, sans-serif">25</text></g><g class="tick" opacity="1" transform="translate(329,0)"><line stroke="#e3e7ea" y2="6" fill="none"></line><text fill="#5b6570" y="9" dy="0.71em" font-size="11" font-family="Source Sans 3, Segoe UI, sans-serif">30</text></g><g class="tick" opacity="1" transform="translate(376.5,0)"><line stroke="#e3e7ea" y2="6" fill="none"></line><text fill="#5b6570" y="9" dy="0.71em" font-size="11" font-family="Source Sans 3, Segoe UI, sans-serif">35</text></g><g class="tick" opacity="1" transform="translate(424,0)"><line stroke="#e3e7ea" y2="6" fill="none"></line><text fill="#5b6570" y="9" dy="0.71em" font-size="11" font-family="Source Sans 3, Segoe UI, sans-serif">40</text></g></g><g class="axis" transform="translate(44,0)" fill="none" font-size="10" font-family="sans-serif" text-anchor="end"><path class="domain" stroke="#e3e7ea" d="M-6,266H0V20H-6" fill="none"></path><g class="tick" opacity="1" transform="translate(0,243.63636363636365)"><line stroke="#e3e7ea" x2="-6" fill="none"></line><text fill="#5b6570" x="-9" dy="0.32em" font-size="11" font-family="Source Sans 3, Segoe UI, sans-serif">0.3</text></g><g class="tick" opacity="1" transform="translate(0,198.90909090909093)"><line stroke="#e3e7ea" x2="-6" fill="none"></line><text fill="#5b6570" x="-9" dy="0.32em" font-size="11" font-family="Source Sans 3, Segoe UI, sans-serif">0.4</text></g><g class="tick" opacity="1" transform="translate(0,154.1818181818182)"><line stroke="#e3e7ea" x2="-6" fill="none"></line><text fill="#5b6570" x="-9" dy="0.32em" font-size="11" font-family="Source Sans 3, Segoe UI, sans-serif">0.5</text></g><g class="tick" opacity="1" transform="translate(0,109.45454545454548)"><line stroke="#e3e7ea" x2="-6" fill="none"></line><text fill="#5b6570" x="-9" dy="0.32em" font-size="11" font-family="Source Sans 3, Segoe UI, sans-serif">0.6</text></g><g class="tick" opacity="1" transform="translate(0,64.72727272727278)"><line stroke="#e3e7ea" x2="-6" fill="none"></line><text fill="#5b6570" x="-9" dy="0.32em" font-size="11" font-family="Source Sans 3, Segoe UI, sans-serif">0.7</text></g><g class="tick" opacity="1" transform="translate(0,20)"><line stroke="#e3e7ea" x2="-6" fill="none"></line><text fill="#5b6570" x="-9" dy="0.32em" font-size="11" font-family="Source Sans 3, Segoe UI, sans-serif">0.8</text></g></g><text class="lbl" x="424" y="294" text-anchor="end" fill="#5b6570" font-size="11" font-family="Source Sans 3, Segoe UI, sans-serif">layer</text><path d="M44,112.329C63,100.103,82,87.877,101,87.81C116.833,87.753,132.667,87.781,148.5,87.725C167.5,87.657,186.5,85.907,205.5,85.907C224.5,85.907,243.5,93.756,262.5,95.419C281.5,97.082,300.5,97.913,319.5,97.913C335.333,97.913,351.167,93.686,367,93.686C386,93.686,405,95.335,424,96.983L424,164.415C405,163.432,386,162.448,367,162.448C351.167,162.448,335.333,163.119,319.5,163.119C300.5,163.119,281.5,162.575,262.5,161.487C243.5,160.399,224.5,155.966,205.5,155.966C186.5,155.966,167.5,157.379,148.5,157.882C132.667,158.302,116.833,158.207,101,158.857C82,159.638,63,168.256,44,176.875Z" fill="#9aa5b1" opacity="0.38"></path><line x1="44" x2="424" y1="154.1818181818182" y2="154.1818181818182" stroke="#c8cdd3" stroke-dasharray="2 3"></line><text class="lbl" x="47" y="150.1818181818182" fill="#5b6570" font-size="11" font-family="Source Sans 3, Segoe UI, sans-serif">0.5</text><path d="M44,128.394C63,112.752,82,97.11,101,97.11C116.833,97.11,132.667,111.014,148.5,111.484C167.5,112.047,186.5,111.766,205.5,112.329C224.5,112.893,243.5,138.54,262.5,138.54C281.5,138.54,300.5,107.077,319.5,97.11C335.333,88.805,351.167,80.2,367,80.2C386,80.2,405,83.582,424,86.964" fill="none" stroke="#b5462f" stroke-width="2"></path><circle cx="44" cy="128.39388211032824" r="3" fill="#ffffff" stroke="#b5462f" stroke-width="1.5"></circle><circle cx="101" cy="97.11015638425847" r="3" fill="#ffffff" stroke="#b5462f" stroke-width="1.5"></circle><circle cx="148.5" cy="111.48376009623647" r="3" fill="#ffffff" stroke="#b5462f" stroke-width="1.5"></circle><circle cx="205.5" cy="112.32926619694106" r="3" fill="#ffffff" stroke="#b5462f" stroke-width="1.5"></circle><circle cx="262.5" cy="138.5399553187833" r="3" fill="#ffffff" stroke="#b5462f" stroke-width="1.5"></circle><circle cx="319.5" cy="97.11015638425847" r="4.5" fill="#b5462f" stroke="#b5462f" stroke-width="1.5"></circle><circle cx="367" cy="80.2000343701667" r="4.5" fill="#b5462f" stroke="#b5462f" stroke-width="1.5"></circle><circle cx="424" cy="86.96408317580342" r="4.5" fill="#b5462f" stroke="#b5462f" stroke-width="1.5"></circle><text class="lbl" x="46" y="118.39388211032824" fill="#5b6570" font-size="11" font-family="Source Sans 3, Segoe UI, sans-serif">layer 0</text><text class="tag" x="484" y="14" fill="#2f6f8f" font-size="10.5" font-weight="600" letter-spacing="0.04em" font-family="ui-monospace, monospace">right vs wrong relocation</text><g class="axis" transform="translate(0,266)" fill="none" font-size="10" font-family="sans-serif" text-anchor="middle"><path class="domain" stroke="#e3e7ea" d="M484,6V0H864V6" fill="none"></path><g class="tick" opacity="1" transform="translate(484,0)"><line stroke="#e3e7ea" y2="6" fill="none"></line><text fill="#5b6570" y="9" dy="0.71em" font-size="11" font-family="Source Sans 3, Segoe UI, sans-serif">0</text></g><g class="tick" opacity="1" transform="translate(531.5,0)"><line stroke="#e3e7ea" y2="6" fill="none"></line><text fill="#5b6570" y="9" dy="0.71em" font-size="11" font-family="Source Sans 3, Segoe UI, sans-serif">5</text></g><g class="tick" opacity="1" transform="translate(579,0)"><line stroke="#e3e7ea" y2="6" fill="none"></line><text fill="#5b6570" y="9" dy="0.71em" font-size="11" font-family="Source Sans 3, Segoe UI, sans-serif">10</text></g><g class="tick" opacity="1" transform="translate(626.5,0)"><line stroke="#e3e7ea" y2="6" fill="none"></line><text fill="#5b6570" y="9" dy="0.71em" font-size="11" font-family="Source Sans 3, Segoe UI, sans-serif">15</text></g><g class="tick" opacity="1" transform="translate(674,0)"><line stroke="#e3e7ea" y2="6" fill="none"></line><text fill="#5b6570" y="9" dy="0.71em" font-size="11" font-family="Source Sans 3, Segoe UI, sans-serif">20</text></g><g class="tick" opacity="1" transform="translate(721.5,0)"><line stroke="#e3e7ea" y2="6" fill="none"></line><text fill="#5b6570" y="9" dy="0.71em" font-size="11" font-family="Source Sans 3, Segoe UI, sans-serif">25</text></g><g class="tick" opacity="1" transform="translate(769,0)"><line stroke="#e3e7ea" y2="6" fill="none"></line><text fill="#5b6570" y="9" dy="0.71em" font-size="11" font-family="Source Sans 3, Segoe UI, sans-serif">30</text></g><g class="tick" opacity="1" transform="translate(816.5,0)"><line stroke="#e3e7ea" y2="6" fill="none"></line><text fill="#5b6570" y="9" dy="0.71em" font-size="11" font-family="Source Sans 3, Segoe UI, sans-serif">35</text></g><g class="tick" opacity="1" transform="translate(864,0)"><line stroke="#e3e7ea" y2="6" fill="none"></line><text fill="#5b6570" y="9" dy="0.71em" font-size="11" font-family="Source Sans 3, Segoe UI, sans-serif">40</text></g></g><g class="axis" transform="translate(484,0)" fill="none" font-size="10" font-family="sans-serif" text-anchor="end"><path class="domain" stroke="#e3e7ea" d="M-6,266H0V20H-6" fill="none"></path><g class="tick" opacity="1" transform="translate(0,243.63636363636365)"><line stroke="#e3e7ea" x2="-6" fill="none"></line><text fill="#5b6570" x="-9" dy="0.32em" font-size="11" font-family="Source Sans 3, Segoe UI, sans-serif">0.3</text></g><g class="tick" opacity="1" transform="translate(0,198.90909090909093)"><line stroke="#e3e7ea" x2="-6" fill="none"></line><text fill="#5b6570" x="-9" dy="0.32em" font-size="11" font-family="Source Sans 3, Segoe UI, sans-serif">0.4</text></g><g class="tick" opacity="1" transform="translate(0,154.1818181818182)"><line stroke="#e3e7ea" x2="-6" fill="none"></line><text fill="#5b6570" x="-9" dy="0.32em" font-size="11" font-family="Source Sans 3, Segoe UI, sans-serif">0.5</text></g><g class="tick" opacity="1" transform="translate(0,109.45454545454548)"><line stroke="#e3e7ea" x2="-6" fill="none"></line><text fill="#5b6570" x="-9" dy="0.32em" font-size="11" font-family="Source Sans 3, Segoe UI, sans-serif">0.6</text></g><g class="tick" opacity="1" transform="translate(0,64.72727272727278)"><line stroke="#e3e7ea" x2="-6" fill="none"></line><text fill="#5b6570" x="-9" dy="0.32em" font-size="11" font-family="Source Sans 3, Segoe UI, sans-serif">0.7</text></g><g class="tick" opacity="1" transform="translate(0,20)"><line stroke="#e3e7ea" x2="-6" fill="none"></line><text fill="#5b6570" x="-9" dy="0.32em" font-size="11" font-family="Source Sans 3, Segoe UI, sans-serif">0.8</text></g></g><text class="lbl" x="864" y="294" text-anchor="end" fill="#5b6570" font-size="11" font-family="Source Sans 3, Segoe UI, sans-serif">layer</text><path d="M484,191.669C503,151.404,522,111.139,541,106.652C556.833,102.913,572.667,103.846,588.5,101.044C607.5,97.682,626.5,88.477,645.5,86.931C664.5,85.384,683.5,84.611,702.5,84.611C721.5,84.611,740.5,93.4,759.5,94.841C775.333,96.042,791.167,96.643,807,96.643C826,96.643,845,86.08,864,75.518L864,183.099C845,184.434,826,185.769,807,188.417C791.167,190.624,775.333,196.86,759.5,196.86C740.5,196.86,721.5,189.901,702.5,189.901C683.5,189.901,664.5,191.197,645.5,191.726C626.5,192.256,607.5,192.177,588.5,193.078C572.667,193.828,556.833,196.615,541,203.691C522,212.181,503,241.796,484,271.41Z" fill="#9aa5b1" opacity="0.38"></path><line x1="484" x2="864" y1="154.1818181818182" y2="154.1818181818182" stroke="#c8cdd3" stroke-dasharray="2 3"></line><text class="lbl" x="487" y="150.1818181818182" fill="#5b6570" font-size="11" font-family="Source Sans 3, Segoe UI, sans-serif">0.5</text><path d="M484,349.657C503,299.684,522,249.71,541,249.71C556.833,249.71,572.667,255.232,588.5,255.232C607.5,255.232,626.5,248.79,645.5,235.906C664.5,223.021,683.5,159.704,702.5,159.704C721.5,159.704,740.5,174.348,759.5,191.731C775.333,206.216,791.167,249.158,807,249.158C826,249.158,845,197.805,864,146.451" fill="none" stroke="#2f6f8f" stroke-width="2"></path><circle cx="484" cy="349.6565656565656" r="3" fill="#ffffff" stroke="#2f6f8f" stroke-width="1.5"></circle><circle cx="541" cy="249.7104377104377" r="3" fill="#ffffff" stroke="#2f6f8f" stroke-width="1.5"></circle><circle cx="588.5" cy="255.2323232323232" r="3" fill="#ffffff" stroke="#2f6f8f" stroke-width="1.5"></circle><circle cx="645.5" cy="235.9057239057239" r="3" fill="#ffffff" stroke="#2f6f8f" stroke-width="1.5"></circle><circle cx="702.5" cy="159.70370370370372" r="3" fill="#ffffff" stroke="#2f6f8f" stroke-width="1.5"></circle><circle cx="759.5" cy="191.7306397306397" r="3" fill="#ffffff" stroke="#2f6f8f" stroke-width="1.5"></circle><circle cx="807" cy="249.15824915824913" r="3" fill="#ffffff" stroke="#2f6f8f" stroke-width="1.5"></circle><circle cx="864" cy="146.4511784511785" r="3" fill="#ffffff" stroke="#2f6f8f" stroke-width="1.5"></circle><text class="lbl" x="486" y="339.6565656565656" fill="#5b6570" font-size="11" font-family="Source Sans 3, Segoe UI, sans-serif">layer 0</text><text class="lbl" transform="rotate(-90)" x="-26" y="13" text-anchor="end" fill="#5b6570" font-size="11" font-family="Source Sans 3, Segoe UI, sans-serif">cross-validated AUC</text><text class="key" x="440" y="322" text-anchor="middle" fill="#5b6570" font-size="11.5" font-family="Source Sans 3, Segoe UI, sans-serif">shaded = permutation null (mean → 95th pct) · filled dot = above its null</text></svg>